<?xml version="1.0" encoding="UTF-8"?>
<svg id="Layer_1" xmlns="http://www.w3.org/2000/svg" version="1.1" viewBox="0 0 20 20">
  <!-- Generator: Adobe Illustrator 30.2.1, SVG Export Plug-In . SVG Version: 2.1.1 Build 1)  -->
  <defs>
    <style>
      .st0 {
        fill: #ff5d24;
      }
    </style>
  </defs>
  <path class="st0" d="M10,20C4.5,20,0,15.5,0,10S4.5,0,10,0s10,4.5,10,10-4.5,10-10,10ZM10,2C5.6,2,2,5.6,2,10s3.6,8,8,8,8-3.6,8-8S14.4,2,10,2Z"/>
  <path class="st0" d="M6,15c-.3,0-.5-.1-.7-.3-.3-.3-.4-.7-.2-1.1l2.5-5.5c0-.2.3-.4.5-.5l5.5-2.5c.4-.2.8,0,1.1.2.3.3.4.7.2,1.1l-2.5,5.5c0,.2-.3.4-.5.5l-5.5,2.5h-.4ZM9.3,9.3l-1.2,2.7,2.7-1.2,1.2-2.7-2.7,1.2Z"/>
</svg>